<svg xmlns="http://www.w3.org/2000/svg" viewBox="0 0 400 443.32"><defs><style>.cls-1{fill:#31263e;}.cls-2{fill:#ee5622;}</style></defs><title>Asset 1</title><g id="Layer_2" data-name="Layer 2"><g id="Layer_1-2" data-name="Layer 1"><path class="cls-1" d="M400,302.49V140.83a60,60,0,0,0-30-52L230,8a60,60,0,0,0-60,0L30,88.87a60,60,0,0,0-30,52V302.49a60,60,0,0,0,30,52l140,80.83a60,60,0,0,0,60,0l140-80.83A60,60,0,0,0,400,302.49Z"/><path class="cls-2" d="M64.65,128.66h0A15.65,15.65,0,0,1,80.3,144.32V299a15.65,15.65,0,0,1-15.65,15.65h0A15.65,15.65,0,0,1,49,299V144.32A15.66,15.66,0,0,1,64.65,128.66Z"/><path class="cls-2" d="M245.12,128.66h0a15.66,15.66,0,0,1,15.65,15.66V299a15.65,15.65,0,0,1-15.65,15.65h0A15.66,15.66,0,0,1,229.46,299V144.32A15.66,15.66,0,0,1,245.12,128.66Z"/><path class="cls-2" d="M154.88,264.93h0a15.66,15.66,0,0,1,15.66,15.65h0a15.66,15.66,0,0,1-15.66,15.66h0a15.66,15.66,0,0,1-15.65-15.66h0A15.65,15.65,0,0,1,154.88,264.93Z"/><path class="cls-2" d="M318.77,202.32h0A15.66,15.66,0,0,1,334.43,218h0a15.66,15.66,0,0,1-15.66,15.65h0A15.65,15.65,0,0,1,303.12,218h0A15.66,15.66,0,0,1,318.77,202.32Z"/><path class="cls-2" d="M335.35,137.87h0A15.65,15.65,0,0,1,351,153.52h0a15.66,15.66,0,0,1-15.65,15.66h0a15.65,15.65,0,0,1-15.65-15.66h0A15.65,15.65,0,0,1,335.35,137.87Z"/><path class="cls-2" d="M335.35,279.66h0A15.66,15.66,0,0,1,351,295.32h0A15.65,15.65,0,0,1,335.35,311h0a15.65,15.65,0,0,1-15.65-15.65h0A15.65,15.65,0,0,1,335.35,279.66Z"/><path class="cls-2" d="M154.88,147.08h0a15.66,15.66,0,0,1,15.66,15.65h0a15.65,15.65,0,0,1-15.66,15.65h0a15.65,15.65,0,0,1-15.65-15.65h0A15.65,15.65,0,0,1,154.88,147.08Z"/></g></g></svg>