<svg xmlns="http://www.w3.org/2000/svg" viewBox="0 0 512 512"><defs><style>.cls-1{fill:#262c35;}.cls-2{fill:#f56565;}</style></defs><title>Asset 2</title><g id="Layer_2" data-name="Layer 2"><g id="Layer_1-2" data-name="Layer 1"><rect class="cls-1" width="512" height="512"/><path class="cls-2" d="M77.87,133.61h0a20.6,20.6,0,0,1,20.6,20.6V357.79a20.6,20.6,0,0,1-20.6,20.6h0a20.6,20.6,0,0,1-20.6-20.6V154.21A20.6,20.6,0,0,1,77.87,133.61Z"/><path class="cls-2" d="M315.38,133.61h0a20.6,20.6,0,0,1,20.6,20.6V357.79a20.6,20.6,0,0,1-20.6,20.6h0a20.6,20.6,0,0,1-20.6-20.6V154.21A20.6,20.6,0,0,1,315.38,133.61Z"/><path class="cls-2" d="M196.62,313h0a20.6,20.6,0,0,1,20.6,20.6h0a20.6,20.6,0,0,1-20.6,20.6h0a20.6,20.6,0,0,1-20.6-20.6h0A20.61,20.61,0,0,1,196.62,313Z"/><path class="cls-2" d="M412.32,230.55h0a20.6,20.6,0,0,1,20.6,20.6h0a20.6,20.6,0,0,1-20.6,20.6h0a20.6,20.6,0,0,1-20.6-20.6h0A20.6,20.6,0,0,1,412.32,230.55Z"/><path class="cls-2" d="M434.13,145.73h0a20.6,20.6,0,0,1,20.6,20.6h0a20.6,20.6,0,0,1-20.6,20.6h0a20.6,20.6,0,0,1-20.6-20.6h0A20.6,20.6,0,0,1,434.13,145.73Z"/><path class="cls-2" d="M434.13,332.34h0a20.6,20.6,0,0,1,20.6,20.6h0a20.6,20.6,0,0,1-20.6,20.6h0a20.6,20.6,0,0,1-20.6-20.6h0A20.6,20.6,0,0,1,434.13,332.34Z"/><path class="cls-2" d="M196.62,157.85h0a20.6,20.6,0,0,1,20.6,20.6h0a20.6,20.6,0,0,1-20.6,20.6h0a20.61,20.61,0,0,1-20.6-20.6h0A20.6,20.6,0,0,1,196.62,157.85Z"/></g></g></svg>